<?xml version="1.0" encoding="UTF-8" standalone="no"?>
<!-- Created with Inkscape (http://www.inkscape.org/) -->

<svg
   width="118.80524mm"
   height="130.01625mm"
   viewBox="0 0 118.80524 130.01625"
   version="1.1"
   id="svg166"
   xmlns="http://www.w3.org/2000/svg"
   xmlns:svg="http://www.w3.org/2000/svg">
  <defs
     id="defs163" />
  <g
     id="layer1"
     transform="translate(-15.528576,-3.111142)">
    <g
       id="g129"
       transform="matrix(0.26458333,0,0,0.26458333,-396.87966,-88.564336)">
      <g
         id="g101">
        <path
           class="jp-icon-accent0"
           fill="#eceff4"
           d="m 1953.565,592.249 c 1.711,-1.937 3.375,-3.872 4.993,-5.796 2.106,0.321 4.264,0.488 6.458,0.488 23.556,0 42.72,-19.164 42.72,-42.72 0,-10.633 -3.913,-20.362 -10.364,-27.847 l 0.104,-0.474 c 3.872,-17.731 1.98,-33.396 -5.621,-46.56 -15.934,-27.6 -54.041,-38.757 -107.296,-31.424 -5.885,0.811 -11.98,1.854 -18.211,3.115 -2.022,-6.019 -4.168,-11.821 -6.411,-17.33 -20.275,-49.79 -48.993,-77.211 -80.862,-77.211 -31.87,0 -60.588,27.421 -80.863,77.211 -2.127,5.223 -4.164,10.722 -6.096,16.419 -4.967,-18.089 -21.547,-31.422 -41.192,-31.422 -19.339,0 -35.709,12.921 -40.952,30.582 -20.582,5.076 -35.354,15.138 -43.896,29.933 -17.532,30.366 -3.433,74.802 38.646,122.757 -4.274,4.833 -8.291,9.666 -11.996,14.435 -32.98,42.454 -42.368,81.035 -26.434,108.634 17.153,29.709 61.133,39.917 121.644,28.666 -4.59,6.809 -7.272,15.005 -7.272,23.816 0,23.556 19.164,42.72 42.72,42.72 1.178,0 2.341,-0.061 3.495,-0.155 l 0.198,0.231 c 15.521,18.039 33.503,27.573 51.999,27.573 35.035,0 66.45,-34.368 86.941,-94.69 6.269,1.271 12.404,2.323 18.326,3.138 53.256,7.334 91.362,-3.824 107.297,-31.424 15.935,-27.601 6.546,-66.181 -26.435,-108.634 -3.604,-4.638 -7.5,-9.335 -11.64,-14.031 z m -174.491,213.952 c -7.585,0 -15.325,-3.75 -23.057,-11.155 6.285,-7.44 10.084,-17.044 10.084,-27.524 0,-16.817 -9.771,-31.39 -23.931,-38.354 12.144,-4.178 24.46,-8.989 36.862,-14.42 19.316,8.499 38.389,15.521 56.878,20.945 -14.917,43.761 -36.287,70.508 -56.836,70.508 z M 1650.923,494.138 c 11.576,0 22.085,-4.635 29.786,-12.138 -3.338,15.561 -5.963,31.909 -7.814,48.884 -17.026,12.475 -32.655,25.479 -46.613,38.786 -30.527,-34.856 -43.052,-66.79 -32.764,-84.61 3.578,-6.196 10.152,-10.853 19.551,-13.878 7.144,13.63 21.427,22.956 37.854,22.956 z m 57.219,12.966 c 1.624,-9.649 3.524,-19.002 5.691,-28 8.871,2.627 17.915,5.663 27.074,9.084 -5.557,2.972 -11.088,6.047 -16.563,9.207 -5.45,3.148 -10.862,6.39 -16.202,9.709 z m 70.964,-37.537 c -19.147,-8.445 -38.077,-15.445 -56.451,-20.878 1.563,-4.522 3.201,-8.889 4.899,-13.058 14.868,-36.51 33.646,-57.45 51.52,-57.45 17.874,0 36.651,20.939 51.52,57.449 1.705,4.188 3.35,8.574 4.919,13.113 -18.355,5.416 -37.267,12.397 -56.407,20.824 z m 54.48,27.703 c -5.382,-3.107 -10.818,-6.131 -16.281,-9.056 9.146,-3.41 18.173,-6.433 27.026,-9.05 2.162,8.983 4.06,18.32 5.68,27.951 -5.407,-3.362 -10.892,-6.65 -16.425,-9.845 z m 54.643,76.083 c 7.513,6.213 14.635,12.519 21.316,18.875 -6.686,6.351 -13.809,12.648 -21.326,18.855 0.208,-6.285 0.313,-12.596 0.313,-18.893 0,-6.284 -0.101,-12.575 -0.303,-18.837 z m 79.474,-71.758 c -0.889,-0.056 -1.783,-0.093 -2.687,-0.093 -23.556,0 -42.72,19.164 -42.72,42.72 0,8.338 2.41,16.119 6.557,22.701 -13.182,-12.334 -27.774,-24.401 -43.591,-36.001 -2.27,-20.813 -5.683,-40.707 -10.175,-59.33 4.73,-0.915 9.349,-1.684 13.811,-2.298 39.055,-5.378 66.576,0.414 75.512,15.892 2.602,4.506 3.686,10.02 3.293,16.409 z m -297.781,71.703 c -0.204,6.289 -0.307,12.598 -0.307,18.892 0,6.376 0.105,12.766 0.314,19.13 -7.622,-6.237 -14.837,-12.554 -21.6,-18.914 6.764,-6.435 13.977,-12.819 21.593,-19.108 z m 54.206,113.56 c 5.583,3.224 11.23,6.36 16.907,9.391 -9.199,3.47 -18.272,6.55 -27.154,9.218 -2.187,-9.054 -4.103,-18.47 -5.737,-28.19 5.274,3.28 10.611,6.479 15.984,9.581 z m 55.016,-6.886 c -13.139,-6.219 -26.296,-13.123 -39.171,-20.557 -12.688,-7.325 -25.082,-15.141 -36.905,-23.27 -1.17,-14.392 -1.763,-29.155 -1.763,-43.955 0,-14.761 0.591,-29.502 1.757,-43.889 11.851,-8.186 24.321,-16.066 37.128,-23.46 12.801,-7.39 25.869,-14.253 38.912,-20.437 12.926,6.137 25.903,12.958 38.64,20.312 12.884,7.439 25.429,15.371 37.351,23.613 1.162,14.35 1.75,29.083 1.75,43.862 0,14.755 -0.576,29.486 -1.717,43.861 -11.88,8.207 -24.362,16.096 -37.167,23.489 -12.784,7.379 -25.821,14.241 -38.815,20.431 z m -152.4,-65.073 c 13.84,13.244 29.313,26.167 46.147,38.542 2.286,20.972 5.73,41.001 10.269,59.733 -45.33,8.947 -79.156,3.808 -89.426,-13.979 -8.937,-15.479 -0.191,-42.211 23.994,-73.343 2.805,-3.61 5.821,-7.273 9.016,-10.953 z m 217.843,90.331 c -8.923,-2.625 -18.025,-5.664 -27.251,-9.097 5.53,-2.954 11.03,-6.01 16.469,-9.149 5.511,-3.182 10.976,-6.458 16.362,-9.807 -1.591,9.675 -3.454,19.046 -5.58,28.053 z m 40.598,-51.686 c 16.888,-12.369 32.402,-25.261 46.278,-38.452 3.091,3.57 6.014,7.126 8.738,10.634 24.185,31.132 32.93,57.864 23.993,73.342 -8.937,15.48 -36.462,21.273 -75.513,15.893 -4.462,-0.614 -9.082,-1.383 -13.814,-2.299 4.553,-18.583 8.013,-38.405 10.318,-59.118 z"
           id="path97" />
        <path
           class="jp-icon-accent0"
           fill="#eceff4"
           d="m 1778.96,525.194 c -37.76,0 -68.479,30.72 -68.479,68.48 0,37.76 30.72,68.48 68.479,68.48 37.761,0 68.48,-30.72 68.48,-68.48 0,-37.76 -30.719,-68.48 -68.48,-68.48 z"
           id="path99" />
      </g>
      <path
         class="jp-icon3"
         fill="#929eaa"
         d="m 1983.194,474.341 c 6.462,11.19 7.748,24.609 4.512,39.426 -3.21,-2.396 -6.81,-4.296 -10.689,-5.587 1.786,-10.648 0.592,-20.136 -3.945,-27.995 -11.615,-20.118 -43.458,-26.595 -85.537,-20.799 -7.916,1.09 -16.173,2.623 -24.711,4.579 5.895,21.867 10.329,46.288 12.958,72.426 21.299,15.349 40.207,31.397 56.17,47.433 3.167,-3.405 6.187,-6.802 9.06,-10.185 3.053,2.494 6.5,4.522 10.234,5.977 -3.51,4.19 -7.239,8.403 -11.182,12.625 6.306,6.767 12.067,13.51 17.243,20.173 29.048,37.391 39.902,72.852 25.672,97.5 -14.23,24.648 -50.367,32.978 -97.272,26.518 -8.457,-1.165 -17.283,-2.811 -26.41,-4.924 -18.101,58.437 -47.296,96.383 -80.222,96.383 -16.076,0 -31.137,-8.66 -44.419,-24.096 3.883,-1.206 7.499,-3.017 10.736,-5.324 10.451,11.404 21.845,17.729 33.683,17.729 28.306,0 53.485,-34.232 69.535,-87.346 -21.986,-5.816 -45.479,-14.209 -69.566,-25.049 -23.915,10.717 -47.28,19.004 -69.223,24.751 0.321,1.049 0.645,2.093 0.973,3.128 -3.792,1.334 -7.311,3.251 -10.445,5.647 -0.642,-1.973 -1.27,-3.975 -1.885,-5.999 -59.626,13.519 -107.055,7.21 -123.512,-21.293 -14.229,-24.647 -3.376,-60.109 25.671,-97.499 5.271,-6.783 11.149,-13.651 17.591,-20.542 -41.636,-44.937 -59.957,-89.244 -43.479,-117.785 7.385,-12.792 20.676,-21.185 38.305,-25.4 -0.058,0.861 -0.092,1.729 -0.092,2.604 0,3.123 0.382,6.159 1.093,9.063 -13.577,3.546 -23.664,10.021 -29.182,19.578 -14.169,24.541 2.94,63.514 40.997,104.018 16.046,-16.133 35.074,-32.281 56.52,-47.719 2.632,-26.155 7.072,-50.59 12.974,-72.465 -2.691,-0.619 -5.357,-1.198 -7.991,-1.73 1.003,-3.407 1.542,-7.013 1.542,-10.743 0,-0.287 0,-0.571 -0.01,-0.855 3.188,0.638 6.419,1.339 9.688,2.096 2.721,-8.905 5.694,-17.323 8.896,-25.187 17.858,-43.852 43.141,-70.982 71.602,-70.982 28.461,0 53.743,27.13 71.601,70.982 3.21,7.883 6.193,16.323 8.921,25.254 9.098,-2.104 17.896,-3.744 26.327,-4.905 46.902,-6.459 83.039,1.871 97.268,26.519 z m -106.085,77.527 c 0.936,13.101 1.423,26.576 1.423,40.322 0,13.77 -0.501,27.259 -1.458,40.382 17.557,-13.17 33.27,-26.77 46.779,-40.337 -13.494,-13.576 -29.194,-27.186 -46.744,-40.367 z m 54.834,48.783 c -15.986,16.03 -34.915,32.073 -56.229,47.412 -2.671,26.032 -7.169,50.37 -13.149,72.216 8.553,1.961 16.824,3.497 24.753,4.589 42.079,5.796 73.922,-0.681 85.537,-20.799 11.615,-20.118 1.302,-50.933 -24.756,-84.477 -4.858,-6.252 -10.255,-12.582 -16.156,-18.941 z m -80.15,116.971 c 4.903,-18.477 8.753,-38.919 11.331,-60.77 -10.912,7.388 -22.375,14.574 -34.32,21.472 -11.912,6.877 -23.833,13.183 -35.663,18.909 20.307,8.659 40.052,15.482 58.652,20.389 z m -86.664,-20.321 c -11.936,-5.786 -23.973,-12.158 -36,-19.103 -11.846,-6.839 -23.202,-13.971 -34.021,-21.309 2.645,21.919 6.598,42.442 11.637,61.014 18.479,-4.996 38.141,-11.895 58.384,-20.602 z m -82.756,-49.323 c -21.244,-15.339 -40.113,-31.417 -56.073,-47.536 -6.021,6.47 -11.525,12.914 -16.469,19.277 -26.059,33.543 -36.372,64.358 -24.757,84.477 14.149,24.505 56.356,29.198 110.352,16.559 -5.943,-21.956 -10.408,-46.501 -13.053,-72.777 z m -48.385,-55.528 c 13.578,13.499 29.398,27.068 47.068,40.236 -0.946,-13.156 -1.441,-26.688 -1.441,-40.496 0,-13.761 0.493,-27.25 1.432,-40.364 -17.68,13.264 -33.486,26.961 -47.059,40.624 z m 59.518,49.231 c 12.993,9.104 26.855,17.958 41.467,26.394 14.803,8.547 29.602,16.202 44.186,22.943 14.448,-6.726 29.117,-14.341 43.8,-22.818 14.718,-8.497 28.674,-17.432 41.74,-26.635 1.401,-15.888 2.145,-32.409 2.145,-49.375 0,-16.966 -0.754,-33.49 -2.187,-49.38 -13.116,-9.245 -27.131,-18.219 -41.915,-26.754 -14.618,-8.44 -29.229,-16.016 -43.637,-22.696 -14.495,6.711 -29.203,14.327 -43.914,22.821 -14.702,8.488 -28.64,17.408 -41.692,26.599 -1.434,15.899 -2.192,32.435 -2.192,49.411 -10e-4,17.005 0.759,33.565 2.199,49.49 z m 71.544,-154.587 c -20.198,-8.638 -39.847,-15.459 -58.369,-20.389 -5.008,18.506 -8.939,38.94 -11.572,60.766 10.889,-7.369 22.319,-14.535 34.236,-21.415 11.928,-6.887 23.867,-13.213 35.705,-18.962 z m -55.132,-31.602 c 21.884,5.843 45.244,14.223 69.186,25.023 23.933,-10.779 47.279,-19.14 69.147,-24.962 -2.575,-8.374 -5.382,-16.292 -8.396,-23.693 -16.021,-39.34 -37.551,-63.678 -60.781,-63.678 -23.23,0 -44.761,24.338 -60.781,63.678 -3.007,7.383 -5.807,15.281 -8.375,23.632 z m 83.242,31.612 c 11.748,5.713 23.59,11.993 35.427,18.826 11.996,6.927 23.505,14.143 34.459,21.563 -2.63,-21.808 -6.559,-42.229 -11.56,-60.724 -18.506,4.915 -38.138,11.719 -58.326,20.335 z"
         id="path103" />
      <g
         id="g109">
        <path
           fill-rule="evenodd"
           clip-rule="evenodd"
           fill="#b48ead"
           d="m 1650.924,484.138 c 18.021,0 32.72,-14.698 32.72,-32.719 0,-18.022 -14.698,-32.72 -32.72,-32.72 -18.022,0 -32.72,14.698 -32.72,32.72 0,18.021 14.698,32.719 32.72,32.719 z"
           id="path105" />
        <path
           fill="#eceff4"
           d="m 1628.05,451.419 c 0,1.197 -0.972,2.169 -2.171,2.169 -1.197,0 -2.17,-0.972 -2.17,-2.169 0,-7.514 3.049,-14.32 7.972,-19.243 4.923,-4.923 11.729,-7.971 19.243,-7.971 1.197,0 2.169,0.972 2.169,2.169 0,1.2 -0.972,2.171 -2.169,2.171 -6.317,0 -12.036,2.561 -16.174,6.7 -4.14,4.138 -6.7,9.857 -6.7,16.174 z"
           id="path107" />
      </g>
      <g
         id="g115">
        <path
           fill-rule="evenodd"
           clip-rule="evenodd"
           fill="#b48ead"
           d="m 1965.018,576.94 c 18.021,0 32.719,-14.698 32.719,-32.719 0,-18.021 -14.697,-32.72 -32.719,-32.72 -18.022,0 -32.721,14.698 -32.721,32.72 0,18.022 14.699,32.719 32.721,32.719 z"
           id="path111" />
        <path
           fill="#eceff4"
           d="m 1942.144,544.221 c 0,1.198 -0.972,2.169 -2.171,2.169 -1.197,0 -2.17,-0.971 -2.17,-2.169 0,-7.514 3.049,-14.32 7.972,-19.243 4.923,-4.923 11.729,-7.971 19.243,-7.971 1.197,0 2.168,0.972 2.168,2.169 0,1.199 -0.971,2.171 -2.168,2.171 -6.317,0 -12.036,2.561 -16.174,6.7 -4.14,4.139 -6.7,9.857 -6.7,16.174 z"
           id="path113" />
      </g>
      <g
         id="g121">
        <path
           fill-rule="evenodd"
           clip-rule="evenodd"
           fill="#b48ead"
           d="m 1723.382,800.242 c 18.022,0 32.72,-14.698 32.72,-32.72 0,-18.021 -14.697,-32.719 -32.72,-32.719 -18.021,0 -32.72,14.698 -32.72,32.719 0,18.022 14.699,32.72 32.72,32.72 z"
           id="path117" />
        <path
           fill="#eceff4"
           d="m 1700.509,767.522 c 0,1.198 -0.973,2.169 -2.171,2.169 -1.197,0 -2.17,-0.972 -2.17,-2.169 0,-7.514 3.049,-14.32 7.972,-19.243 4.923,-4.923 11.729,-7.971 19.242,-7.971 1.198,0 2.169,0.972 2.169,2.169 0,1.199 -0.971,2.171 -2.169,2.171 -6.316,0 -12.035,2.561 -16.173,6.7 -4.14,4.138 -6.7,9.857 -6.7,16.174 z"
           id="path119" />
      </g>
      <g
         id="g127">
        <path
           fill-rule="evenodd"
           clip-rule="evenodd"
           fill="#b48ead"
           d="m 1778.961,652.153 c 32.209,0 58.479,-26.27 58.479,-58.479 0,-32.209 -26.271,-58.479 -58.479,-58.479 -32.21,0 -58.48,26.27 -58.48,58.479 -10e-4,32.21 26.27,58.479 58.48,58.479 z"
           id="path123" />
        <path
           fill="#eceff4"
           d="m 1738.079,593.674 c 0,2.141 -1.737,3.877 -3.882,3.877 -2.139,0 -3.877,-1.736 -3.877,-3.877 0,-13.43 5.448,-25.594 14.248,-34.392 8.799,-8.8 20.963,-14.248 34.393,-14.248 2.141,0 3.876,1.737 3.876,3.876 0,2.145 -1.735,3.882 -3.876,3.882 -11.291,0 -21.512,4.577 -28.907,11.975 -7.398,7.396 -11.975,17.616 -11.975,28.907 z"
           id="path125" />
      </g>
    </g>
  </g>
</svg>
