<?xml version="1.0" encoding="UTF-8" standalone="no"?> <svg xmlns="http://www.w3.org/2000/svg" viewBox="0 0 64 64"><g id="data-technology-manage-20" data-name="data-technology-manage"><path d="M29,17H27V12a1,1,0,0,0-1-1H16V9H26a3,3,0,0,1,3,3Z" style="fill:#d8d7da"/><path d="M37,17H35V12a3,3,0,0,1,3-3H48v2H38a1,1,0,0,0-1,1Z" style="fill:#d8d7da"/><path d="M48,55H38a3,3,0,0,1-3-3V47h2v5a1,1,0,0,0,1,1H48Z" style="fill:#d8d7da"/><path d="M26,55H16V53H26a1,1,0,0,0,1-1V47h2v5A3,3,0,0,1,26,55Z" style="fill:#d8d7da"/><circle cx="10" cy="54" r="7" style="fill:#d80027"/><circle cx="54" cy="54" r="7" style="fill:#ffda44"/><circle cx="10" cy="10" r="7" style="fill:#c2fb3b"/><circle cx="54" cy="10" r="7" style="fill:#ff9811"/><rect x="17" y="28" width="30" height="8" rx="2" style="fill:#00b6bd"/><rect x="17" y="39" width="30" height="8" rx="2" style="fill:#009698"/><rect x="17" y="17" width="30" height="8" rx="2" style="fill:#00e7f0"/><circle cx="22" cy="21" r="2" style="fill:#ffda44"/><circle cx="22" cy="32" r="2" style="fill:#91dc5a"/><circle cx="22" cy="43" r="2" style="fill:#d80027"/><rect x="26" y="42" width="4" height="2" style="fill:#ffeb99"/><rect x="32" y="42" width="12" height="2" style="fill:#ffeb99"/><rect x="26" y="31" width="4" height="2" style="fill:#ffeb99"/><rect x="32" y="31" width="12" height="2" style="fill:#ffeb99"/><rect x="26" y="20" width="4" height="2" style="fill:#ffeb99"/><rect x="32" y="20" width="12" height="2" style="fill:#ffeb99"/><rect x="8" y="8" width="4" height="4" rx="1" style="fill:#fff"/><rect x="8" y="52" width="4" height="4" rx="1" style="fill:#fff"/><rect x="52" y="52" width="4" height="4" rx="1" style="fill:#fff"/><rect x="52" y="8" width="4" height="4" rx="1" style="fill:#fff"/></g></svg>